REM DIRINDEX 1\8,1\2\11,1\3\12,1\3\14,1\5\15,1\5\16,1\6\17,1\6\18,1\4\19,1\4\20,1\4\21,1\4\22,1\7\23,1\7\24,1\7\25,1\2\9\26,1\2\9\27,1\2\10\28,1\2\10\29,1\2\10\30,1\2\10\31,1\2\10\32,1\3\13\33,1\3\13\34,1\3\13\35
REM DIRNAME folder01,folder02,folder03,folder04,folder05,folder06,folder07,folder08,folder09,folder10,folder11,folder12,folder13,folder14,folder15,folder16,folder17,folder18,folder19,folder20,folder21,folder22,folder23,folder24,folder25,folder26,folder27,folder28,folder29,folder30,folder31,folder32,folder33,folder34,folder35
TITLE ""
FILE "1-34 034_UNIT3_SET3.mp3" MP3
  TRACK 01 AUDIO
    TITLE "11:cjc123_1441"
    INDEX 01 00:00:00
  TRACK 02 AUDIO
    TITLE "0:"
    INDEX 01 00:02:51
  TRACK 03 AUDIO
    TITLE "28:cjc123_1442"
    INDEX 01 00:03:27
  TRACK 04 AUDIO
    TITLE "0:"
    INDEX 01 00:04:54
  TRACK 05 AUDIO
    TITLE "29:cjc123_1443"
    INDEX 01 00:04:72
  TRACK 06 AUDIO
    TITLE "0:"
    INDEX 01 00:06:35
  TRACK 07 AUDIO
    TITLE "30:cjc123_1444"
    INDEX 01 00:06:47
  TRACK 08 AUDIO
    TITLE "0:"
    INDEX 01 00:07:70
  TRACK 09 AUDIO
    TITLE "31:cjc123_1445"
    INDEX 01 00:08:48
  TRACK 10 AUDIO
    TITLE "0:"
    INDEX 01 00:12:67
  TRACK 11 AUDIO
    TITLE "32:cjc123_1446"
    INDEX 01 00:13:30
  TRACK 12 AUDIO
    TITLE "0:"
    INDEX 01 00:17:18
  TRACK 13 AUDIO
    TITLE "28:cjc123_1447"
    INDEX 01 00:17:67
  TRACK 14 AUDIO
    TITLE "0:"
    INDEX 01 00:19:03
  TRACK 15 AUDIO
    TITLE "29:cjc123_1448"
    INDEX 01 00:19:18
  TRACK 16 AUDIO
    TITLE "0:"
    INDEX 01 00:20:30
  TRACK 17 AUDIO
    TITLE "30:cjc123_1449"
    INDEX 01 00:20:39
  TRACK 18 AUDIO
    TITLE "0:"
    INDEX 01 00:21:45
  TRACK 19 AUDIO
    TITLE "31:cjc123_1450"
    INDEX 01 00:22:19
  TRACK 20 AUDIO
    TITLE "0:"
    INDEX 01 00:26:44
  TRACK 21 AUDIO
    TITLE "32:cjc123_1451"
    INDEX 01 00:27:20
  TRACK 22 AUDIO
    TITLE "0:"
    INDEX 01 00:31:10
  TRACK 23 AUDIO
    TITLE "28:cjc123_1452"
    INDEX 01 00:31:43
  TRACK 24 AUDIO
    TITLE "0:"
    INDEX 01 00:32:50
  TRACK 25 AUDIO
    TITLE "29:cjc123_1453"
    INDEX 01 00:32:72
  TRACK 26 AUDIO
    TITLE "0:"
    INDEX 01 00:34:42
  TRACK 27 AUDIO
    TITLE "30:cjc123_1454"
    INDEX 01 00:34:47
  TRACK 28 AUDIO
    TITLE "0:"
    INDEX 01 00:35:57
  TRACK 29 AUDIO
    TITLE "31:cjc123_1455"
    INDEX 01 00:36:31
  TRACK 30 AUDIO
    TITLE "0:"
    INDEX 01 00:39:25
  TRACK 31 AUDIO
    TITLE "32:cjc123_1456"
    INDEX 01 00:39:64
  TRACK 32 AUDIO
    TITLE "0:"
    INDEX 01 00:43:25
  TRACK 33 AUDIO
    TITLE "28:cjc123_1457"
    INDEX 01 00:44:01
  TRACK 34 AUDIO
    TITLE "0:"
    INDEX 01 00:45:37
  TRACK 35 AUDIO
    TITLE "29:cjc123_1458"
    INDEX 01 00:45:51
  TRACK 36 AUDIO
    TITLE "0:"
    INDEX 01 00:46:58
  TRACK 37 AUDIO
    TITLE "30:cjc123_1459"
    INDEX 01 00:46:72
  TRACK 38 AUDIO
    TITLE "0:"
    INDEX 01 00:48:18
  TRACK 39 AUDIO
    TITLE "31:cjc123_1460"
    INDEX 01 00:48:69
  TRACK 40 AUDIO
    TITLE "0:"
    INDEX 01 00:53:21
  TRACK 41 AUDIO
    TITLE "32:cjc123_1461"
    INDEX 01 00:53:74
  TRACK 42 AUDIO
    TITLE "0:"
    INDEX 01 00:57:70
  TRACK 43 AUDIO
    TITLE "28:cjc123_1462"
    INDEX 01 00:58:38
  TRACK 44 AUDIO
    TITLE "0:"
    INDEX 01 00:59:57
  TRACK 45 AUDIO
    TITLE "29:cjc123_1463"
    INDEX 01 00:59:73
  TRACK 46 AUDIO
    TITLE "0:"
    INDEX 01 01:01:07
  TRACK 47 AUDIO
    TITLE "30:cjc123_1464"
    INDEX 01 01:01:15
  TRACK 48 AUDIO
    TITLE "0:"
    INDEX 01 01:02:36
  TRACK 49 AUDIO
    TITLE "31:cjc123_1465"
    INDEX 01 01:03:08
  TRACK 50 AUDIO
    TITLE "0:"
    INDEX 01 01:07:14
  TRACK 51 AUDIO
    TITLE "32:cjc123_1466"
    INDEX 01 01:07:49
  TRACK 52 AUDIO
    TITLE "0:"
    INDEX 01 01:11:13
  TRACK 53 AUDIO
    TITLE "28:cjc123_1467"
    INDEX 01 01:11:60
  TRACK 54 AUDIO
    TITLE "0:"
    INDEX 01 01:12:58
  TRACK 55 AUDIO
    TITLE "29:cjc123_1468"
    INDEX 01 01:13:06
  TRACK 56 AUDIO
    TITLE "0:"
    INDEX 01 01:14:35
  TRACK 57 AUDIO
    TITLE "30:cjc123_1469"
    INDEX 01 01:14:41
  TRACK 58 AUDIO
    TITLE "0:"
    INDEX 01 01:15:48
  TRACK 59 AUDIO
    TITLE "31:cjc123_1470"
    INDEX 01 01:16:26
  TRACK 60 AUDIO
    TITLE "0:"
    INDEX 01 01:21:55
  TRACK 61 AUDIO
    TITLE "32:cjc123_1471"
    INDEX 01 01:22:37
  TRACK 62 AUDIO
    TITLE "0:"
    INDEX 01 01:28:10
  TRACK 63 AUDIO
    TITLE "28:cjc123_1472"
    INDEX 01 01:28:43
  TRACK 64 AUDIO
    TITLE "0:"
    INDEX 01 01:29:60
  TRACK 65 AUDIO
    TITLE "29:cjc123_1473"
    INDEX 01 01:29:74
  TRACK 66 AUDIO
    TITLE "0:"
    INDEX 01 01:31:30
  TRACK 67 AUDIO
    TITLE "30:cjc123_1474"
    INDEX 01 01:31:39
  TRACK 68 AUDIO
    TITLE "0:"
    INDEX 01 01:32:60
  TRACK 69 AUDIO
    TITLE "31:cjc123_1475"
    INDEX 01 01:33:50
  TRACK 70 AUDIO
    TITLE "0:"
    INDEX 01 01:37:50
  TRACK 71 AUDIO
    TITLE "32:cjc123_1476"
    INDEX 01 01:38:06
  TRACK 72 AUDIO
    TITLE "0:"
    INDEX 01 01:41:69
  TRACK 73 AUDIO
    TITLE "28:cjc123_1477"
    INDEX 01 01:42:24
  TRACK 74 AUDIO
    TITLE "0:"
    INDEX 01 01:43:35
  TRACK 75 AUDIO
    TITLE "29:cjc123_1478"
    INDEX 01 01:43:51
  TRACK 76 AUDIO
    TITLE "0:"
    INDEX 01 01:45:20
  TRACK 77 AUDIO
    TITLE "30:cjc123_1479"
    INDEX 01 01:45:28
  TRACK 78 AUDIO
    TITLE "0:"
    INDEX 01 01:46:33
  TRACK 79 AUDIO
    TITLE "31:cjc123_1480"
    INDEX 01 01:47:21
  TRACK 80 AUDIO
    TITLE "0:"
    INDEX 01 01:51:25
  TRACK 81 AUDIO
    TITLE "32:cjc123_1481"
    INDEX 01 01:51:62
  TRACK 82 AUDIO
    TITLE "0:"
    INDEX 01 01:56:36
  TRACK 83 AUDIO
    TITLE "28:cjc123_1482"
    INDEX 01 01:57:06
  TRACK 84 AUDIO
    TITLE "0:"
    INDEX 01 01:58:21
  TRACK 85 AUDIO
    TITLE "29:cjc123_1483"
    INDEX 01 01:58:40
  TRACK 86 AUDIO
    TITLE "0:"
    INDEX 01 01:59:67
  TRACK 87 AUDIO
    TITLE "30:cjc123_1484"
    INDEX 01 02:00:08
  TRACK 88 AUDIO
    TITLE "0:"
    INDEX 01 02:01:21
  TRACK 89 AUDIO
    TITLE "31:cjc123_1485"
    INDEX 01 02:01:70
  TRACK 90 AUDIO
    TITLE "0:"
    INDEX 01 02:05:19
  TRACK 91 AUDIO
    TITLE "32:cjc123_1486"
    INDEX 01 02:05:64
  TRACK 92 AUDIO
    TITLE "0:"
    INDEX 01 02:09:54
  TRACK 93 AUDIO
    TITLE "28:cjc123_1487"
    INDEX 01 02:10:30
  TRACK 94 AUDIO
    TITLE "0:"
    INDEX 01 02:11:68
  TRACK 95 AUDIO
    TITLE "29:cjc123_1488"
    INDEX 01 02:12:13
  TRACK 96 AUDIO
    TITLE "0:"
    INDEX 01 02:13:48
  TRACK 97 AUDIO
    TITLE "30:cjc123_1489"
    INDEX 01 02:13:57
  TRACK 98 AUDIO
    TITLE "0:"
    INDEX 01 02:15:23
  TRACK 99 AUDIO
    TITLE "31:cjc123_1490"
    INDEX 01 02:16:03
  TRACK 100 AUDIO
    TITLE "0:"
    INDEX 01 02:20:44
  TRACK 101 AUDIO
    TITLE "32:cjc123_1491"
    INDEX 01 02:21:10
  TRACK 102 AUDIO
    TITLE "0:"
    INDEX 01 02:25:45
  TRACK 103 AUDIO
    TITLE "28:cjc123_1492"
    INDEX 01 02:26:15
  TRACK 104 AUDIO
    TITLE "0:"
    INDEX 01 02:27:30
  TRACK 105 AUDIO
    TITLE "29:cjc123_1493"
    INDEX 01 02:27:42
  TRACK 106 AUDIO
    TITLE "0:"
    INDEX 01 02:29:15
  TRACK 107 AUDIO
    TITLE "30:cjc123_1494"
    INDEX 01 02:29:21
  TRACK 108 AUDIO
    TITLE "0:"
    INDEX 01 02:30:34
  TRACK 109 AUDIO
    TITLE "31:cjc123_1495"
    INDEX 01 02:31:12
  TRACK 110 AUDIO
    TITLE "0:"
    INDEX 01 02:35:26
  TRACK 111 AUDIO
    TITLE "32:cjc123_1496"
    INDEX 01 02:36:02
  TRACK 112 AUDIO
    TITLE "0:"
    INDEX 01 02:40:23
  TRACK 113 AUDIO
    TITLE "28:cjc123_1497"
    INDEX 01 02:40:70
  TRACK 114 AUDIO
    TITLE "0:"
    INDEX 01 02:42:08
  TRACK 115 AUDIO
    TITLE "29:cjc123_1498"
    INDEX 01 02:42:28
  TRACK 116 AUDIO
    TITLE "0:"
    INDEX 01 02:43:39
  TRACK 117 AUDIO
    TITLE "30:cjc123_1499"
    INDEX 01 02:43:47
  TRACK 118 AUDIO
    TITLE "0:"
    INDEX 01 02:44:62
  TRACK 119 AUDIO
    TITLE "31:cjc123_1500"
    INDEX 01 02:45:40
  TRACK 120 AUDIO
    TITLE "0:"
    INDEX 01 02:49:20
  TRACK 121 AUDIO
    TITLE "32:cjc123_1501"
    INDEX 01 02:49:61
  TRACK 122 AUDIO
    TITLE "0:"
    INDEX 01 02:53:14
  TRACK 123 AUDIO
    TITLE "28:cjc123_1502"
    INDEX 01 02:53:67
  TRACK 124 AUDIO
    TITLE "0:"
    INDEX 01 02:55:13
  TRACK 125 AUDIO
    TITLE "29:cjc123_1503"
    INDEX 01 02:55:19
  TRACK 126 AUDIO
    TITLE "0:"
    INDEX 01 02:56:67
  TRACK 127 AUDIO
    TITLE "30:cjc123_1504"
    INDEX 01 02:57:02
  TRACK 128 AUDIO
    TITLE "0:"
    INDEX 01 02:58:09
  TRACK 129 AUDIO
    TITLE "31:cjc123_1505"
    INDEX 01 02:58:50
  TRACK 130 AUDIO
    TITLE "0:"
    INDEX 01 03:02:42
  TRACK 131 AUDIO
    TITLE "32:cjc123_1506"
    INDEX 01 03:03:12
  TRACK 132 AUDIO
    TITLE "0:"
    INDEX 01 03:07:12
  TRACK 133 AUDIO
    TITLE "28:cjc123_1507"
    INDEX 01 03:07:49
  TRACK 134 AUDIO
    TITLE "0:"
    INDEX 01 03:08:43
  TRACK 135 AUDIO
    TITLE "29:cjc123_1508"
    INDEX 01 03:08:70
  TRACK 136 AUDIO
    TITLE "0:"
    INDEX 01 03:10:01
  TRACK 137 AUDIO
    TITLE "30:cjc123_1509"
    INDEX 01 03:10:24
  TRACK 138 AUDIO
    TITLE "0:"
    INDEX 01 03:11:29
  TRACK 139 AUDIO
    TITLE "31:cjc123_1510"
    INDEX 01 03:12:01
  TRACK 140 AUDIO
    TITLE "0:"
    INDEX 01 03:16:27
  TRACK 141 AUDIO
    TITLE "32:cjc123_1511"
    INDEX 01 03:16:66
  TRACK 142 AUDIO
    TITLE "0:"
    INDEX 01 03:21:08
  TRACK 143 AUDIO
    TITLE "28:cjc123_1512"
    INDEX 01 03:21:51
  TRACK 144 AUDIO
    TITLE "0:"
    INDEX 01 03:22:66
  TRACK 145 AUDIO
    TITLE "29:cjc123_1513"
    INDEX 01 03:23:01
  TRACK 146 AUDIO
    TITLE "0:"
    INDEX 01 03:24:22
  TRACK 147 AUDIO
    TITLE "30:cjc123_1514"
    INDEX 01 03:24:32
  TRACK 148 AUDIO
    TITLE "0:"
    INDEX 01 03:25:30
  TRACK 149 AUDIO
    TITLE "31:cjc123_1515"
    INDEX 01 03:26:07
  TRACK 150 AUDIO
    TITLE "0:"
    INDEX 01 03:29:70
  TRACK 151 AUDIO
    TITLE "32:cjc123_1516"
    INDEX 01 03:30:33
  TRACK 152 AUDIO
    TITLE "0:"
    INDEX 01 03:35:14
